<svg width="170" height="64" viewBox="0 0 170 64" fill="none" xmlns="http://www.w3.org/2000/svg">
<path d="M63.002 30H56.9122C55.9502 18.342 46.6585 9.06 35.0029 8.096V2C35.0029 0.896 34.1069 0 33.003 0C31.899 0 31.003 0.896 31.003 2V8.096C19.3474 9.06 10.0557 18.342 9.0917 30H3.00189C1.89793 30 1.00195 30.896 1.00195 32C1.00195 33.104 1.89793 34 3.00189 34H9.0917C10.0537 45.656 19.3474 54.94 31.003 55.904V62C31.003 63.104 31.899 64 33.003 64C34.1069 64 35.0029 63.104 35.0029 62V55.904C46.6585 54.94 55.9502 45.658 56.9122 34H63.002C64.106 34 65.002 33.104 65.002 32C65.002 30.896 64.106 30 63.002 30ZM31.003 12.1V30H13.1016C14.0395 20.55 21.5533 13.036 31.003 12.1ZM13.0996 34H31.001V51.9C21.5513 50.962 14.0375 43.448 13.0996 34ZM35.0029 51.902V34H52.9043C51.9664 43.45 44.4526 50.966 35.0029 51.902ZM35.0029 30V12.1C44.4526 13.038 51.9684 20.552 52.9043 30H35.0029Z" fill="#FF7E6B" stroke="#FF7E6B" stroke-width="0.00133"/>
<path d="M9.02224 45.1492L0.443832 44.9839L12.6952 14.4143L21.4936 14.5839L32.5579 45.6029L23.9795 45.4375L22.1058 39.9004L11.1079 39.6884L9.02224 45.1492ZM13.1977 34.0076L20.2364 34.1433L16.9163 23.7374L13.1977 34.0076ZM36.9469 46.1275C35.6858 46.1032 34.2222 45.9283 32.5561 45.6028L32.6664 39.8839L34.426 39.9178C35.5405 39.9393 36.1384 39.364 36.2196 38.1921L37.4047 22.372L58.5208 22.7789L58.0714 46.0946L50.3728 45.9462L50.7078 28.5695L44.5489 28.4508L43.6728 39.6559C43.5171 41.648 42.8264 43.2336 41.6008 44.4129C40.3751 45.5922 38.8238 46.1637 36.9469 46.1275ZM62.4551 46.1791L62.9045 22.8634L70.6031 23.0118L70.4632 30.2705L79.4815 30.4443C81.4758 30.4827 83.0626 31.1147 84.2419 32.3404C85.4211 33.566 85.9915 35.1759 85.9531 37.1702L85.898 40.0297C85.8595 42.024 85.2275 43.6108 84.0019 44.7901C82.7763 45.9693 81.1663 46.5397 79.172 46.5013L62.4551 46.1791ZM76.6385 40.9514C77.0784 40.9599 77.4478 40.8204 77.7468 40.5327C78.0457 40.2451 78.1994 39.8813 78.2079 39.4414L78.246 37.4618C78.2545 37.0219 78.115 36.6524 77.8273 36.3535C77.5397 36.0546 77.1759 35.9009 76.736 35.8924L70.3572 35.7694L70.2597 40.8285L76.6385 40.9514Z" fill="white"/>
<path d="M119.983 40.2466C119.941 42.4462 119.277 44.1644 117.991 45.4011C116.736 46.6092 115.008 47.192 112.809 47.1496L107.969 47.0563L107.825 54.5349L100.127 54.3866L100.271 46.908L95.4318 46.8147C93.2322 46.7723 91.5138 46.1231 90.2764 44.867C89.0689 43.5821 88.4864 41.8399 88.5288 39.6403L88.7068 30.402C88.7492 28.2025 89.3982 26.4986 90.6537 25.2906C91.9391 24.0538 93.6816 23.4566 95.8812 23.499L100.72 23.5923L100.864 16.1137L108.563 16.262L108.419 23.7407L113.258 23.8339C115.458 23.8763 117.161 24.5399 118.369 25.8248C119.606 27.0809 120.203 28.8087 120.161 31.0083L119.983 40.2466ZM96.2401 39.1288C96.2175 40.3019 96.7927 40.8998 97.9658 40.9224L101.045 40.9818L101.266 29.5439L98.1863 29.4845C97.0132 29.4619 96.4153 30.0372 96.3927 31.2103L96.2401 39.1288ZM112.45 31.5198C112.472 30.3467 111.897 29.7488 110.724 29.7262L108.084 29.6753L107.864 41.1132L110.504 41.1641C111.677 41.1867 112.274 40.6114 112.297 39.4383L112.45 31.5198ZM133.152 41.8206C134.706 41.8506 136.471 41.5912 138.448 41.0425L138.498 38.403L132.12 38.2801C131.68 38.2716 131.31 38.4112 131.011 38.6988C130.712 38.9864 130.559 39.3502 130.55 39.7901L130.542 40.23C130.533 40.67 130.673 41.0394 130.961 41.3383C131.248 41.6372 131.612 41.7909 132.052 41.7994L133.152 41.8206ZM125.344 24.507C130.722 24.0238 135.567 23.8238 139.878 23.9069C141.872 23.9454 143.459 24.5774 144.638 25.803C145.818 27.0286 146.388 28.6386 146.35 30.6329L146.019 47.7897L139.2 47.6583L138.803 45.4502C137.407 46.3328 135.971 46.9799 134.497 47.3916C133.052 47.7745 131.83 47.9563 130.833 47.9371L129.294 47.9074C127.299 47.869 125.713 47.2369 124.533 46.0113C123.354 44.7857 122.784 43.1757 122.822 41.1815L122.86 39.2018C122.899 37.2075 123.531 35.6207 124.756 34.4415C125.982 33.2622 127.592 32.6918 129.586 32.7302L138.604 32.904L138.638 31.1444C138.647 30.7045 138.507 30.335 138.22 30.0361C137.932 29.7372 137.568 29.5835 137.128 29.575C135.222 29.5382 133.109 29.5855 130.788 29.7168C128.497 29.8487 126.647 29.9451 125.238 30.0059L125.344 24.507Z" fill="#FF7E6B"/>
</svg>
